<?xml version="1.0" encoding="UTF-8" standalone="no"?>
<!-- Generated by IcoMoon.io -->

<svg
   xmlns:dc="http://purl.org/dc/elements/1.1/"
   xmlns:cc="http://creativecommons.org/ns#"
   xmlns:rdf="http://www.w3.org/1999/02/22-rdf-syntax-ns#"
   xmlns:svg="http://www.w3.org/2000/svg"
   xmlns="http://www.w3.org/2000/svg"
   xmlns:sodipodi="http://sodipodi.sourceforge.net/DTD/sodipodi-0.dtd"
   xmlns:inkscape="http://www.inkscape.org/namespaces/inkscape"
   version="1.1"
   width="32"
   height="32"
   viewBox="0 0 32 32"
   id="svg2"
   inkscape:version="0.91 r"
   sodipodi:docname="inkscape.svg">
  <metadata
     id="metadata10">
    <rdf:RDF>
      <cc:Work
         rdf:about="">
        <dc:format>image/svg+xml</dc:format>
        <dc:type
           rdf:resource="http://purl.org/dc/dcmitype/StillImage" />
      </cc:Work>
    </rdf:RDF>
  </metadata>
  <defs
     id="defs8" />
  <sodipodi:namedview
     pagecolor="#ffffff"
     bordercolor="#666666"
     borderopacity="1"
     objecttolerance="10"
     gridtolerance="10"
     guidetolerance="10"
     inkscape:pageopacity="0"
     inkscape:pageshadow="2"
     inkscape:window-width="986"
     inkscape:window-height="694"
     id="namedview6"
     showgrid="false"
     inkscape:zoom="7.375"
     inkscape:cx="-4"
     inkscape:cy="16"
     inkscape:window-x="0"
     inkscape:window-y="0"
     inkscape:window-maximized="0"
     inkscape:current-layer="svg2" />
  <path
     d="m 8.5175,11.411501 0,17.696 -5.893,0 0,-17.696 5.893,0 z m 0.375,-5.4650004 q 0.018,1.304 -0.902,2.179 -0.92,0.875 -2.42,0.875 l -0.036,0 q -1.464,0 -2.357,-0.875 -0.893,-0.875 -0.893,-2.179 0,-1.321 0.92,-2.188 0.92,-0.867 2.402,-0.866 1.482,10e-4 2.375,0.866 0.893,0.865 0.911,2.188 z m 20.822,13.0180004 0,10.143 -5.875,0 0,-9.464 q 0,-1.875 -0.723,-2.938 -0.723,-1.063 -2.259,-1.063 -1.125,0 -1.884,0.616 -0.759,0.616 -1.134,1.527 -0.196,0.536 -0.196,1.446 l 0,9.875 -5.875,0 q 0.036,-7.125 0.036,-11.554 0,-4.429 -0.018,-5.286 l -0.018,-0.857 5.875,0 0,2.571 -0.036,0 q 0.357,-0.571 0.732,-1 0.375,-0.429 1.009,-0.929 0.634,-0.5 1.554,-0.777 0.92,-0.277 2.045,-0.277 3.054,0 4.911,2.027 1.857,2.027 1.857,5.938 z"
     id="path4"
     style="fill:#ffffff"
     inkscape:connector-curvature="0" />
</svg>
